<svg width="642" height="190" viewBox="0 0 642 190" fill="none" xmlns="http://www.w3.org/2000/svg">
<path d="M128.76 20.68V40.84H76.44V187H53.16V40.84H0.84V20.68H128.76ZM151.903 187V4.59999L174.223 0.759995V64.6C178.383 63 182.783 61.8 187.423 61C192.223 60.04 196.943 59.56 201.583 59.56C211.503 59.56 219.743 61 226.303 63.88C232.863 66.6 238.063 70.52 241.903 75.64C245.903 80.6 248.703 86.6 250.303 93.64C251.903 100.68 252.703 108.44 252.703 116.92V187H230.383V121.72C230.383 114.04 229.823 107.48 228.703 102.04C227.743 96.6 226.063 92.2 223.663 88.84C221.263 85.48 218.063 83.08 214.063 81.64C210.063 80.04 205.103 79.24 199.183 79.24C196.783 79.24 194.303 79.4 191.743 79.72C189.183 80.04 186.703 80.44 184.303 80.92C182.063 81.24 179.983 81.64 178.063 82.12C176.303 82.6 175.023 83 174.223 83.32V187H151.903ZM311.333 187H289.013V62.2H311.333V187ZM300.053 39.64C296.053 39.64 292.613 38.36 289.733 35.8C287.013 33.08 285.652 29.48 285.652 25C285.652 20.52 287.013 17 289.733 14.44C292.613 11.72 296.053 10.36 300.053 10.36C304.053 10.36 307.413 11.72 310.133 14.44C313.013 17 314.453 20.52 314.453 25C314.453 29.48 313.013 33.08 310.133 35.8C307.413 38.36 304.053 39.64 300.053 39.64ZM387.156 189.4C373.396 189.08 363.636 186.12 357.876 180.52C352.116 174.92 349.236 166.2 349.236 154.36V4.59999L371.556 0.759995V150.76C371.556 154.44 371.876 157.48 372.516 159.88C373.156 162.28 374.196 164.2 375.636 165.64C377.076 167.08 378.996 168.2 381.396 169C383.796 169.64 386.756 170.2 390.276 170.68L387.156 189.4ZM457.581 170.92C462.861 170.92 467.501 170.84 471.501 170.68C475.661 170.36 479.101 169.88 481.821 169.24V132.04C480.221 131.24 477.581 130.6 473.901 130.12C470.381 129.48 466.061 129.16 460.941 129.16C457.581 129.16 453.981 129.4 450.141 129.88C446.461 130.36 443.021 131.4 439.821 133C436.781 134.44 434.221 136.52 432.141 139.24C430.061 141.8 429.021 145.24 429.021 149.56C429.021 157.56 431.581 163.16 436.701 166.36C441.821 169.4 448.781 170.92 457.581 170.92ZM455.661 59.08C464.621 59.08 472.141 60.28 478.221 62.68C484.461 64.92 489.421 68.2 493.101 72.52C496.941 76.68 499.661 81.72 501.261 87.64C502.861 93.4 503.661 99.8 503.661 106.84V184.84C501.741 185.16 499.021 185.64 495.501 186.28C492.141 186.76 488.301 187.24 483.981 187.72C479.661 188.2 474.941 188.6 469.821 188.92C464.861 189.4 459.901 189.64 454.941 189.64C447.901 189.64 441.421 188.92 435.501 187.48C429.581 186.04 424.461 183.8 420.141 180.76C415.821 177.56 412.461 173.4 410.061 168.28C407.661 163.16 406.461 157 406.461 149.8C406.461 142.92 407.821 137 410.541 132.04C413.421 127.08 417.261 123.08 422.061 120.04C426.861 117 432.461 114.76 438.861 113.32C445.261 111.88 451.981 111.16 459.021 111.16C461.261 111.16 463.581 111.32 465.981 111.64C468.381 111.8 470.621 112.12 472.701 112.6C474.941 112.92 476.861 113.24 478.461 113.56C480.061 113.88 481.181 114.12 481.821 114.28V108.04C481.821 104.36 481.421 100.76 480.621 97.24C479.821 93.56 478.381 90.36 476.301 87.64C474.221 84.76 471.341 82.52 467.661 80.92C464.141 79.16 459.501 78.28 453.741 78.28C446.381 78.28 439.901 78.84 434.301 79.96C428.861 80.92 424.781 81.96 422.061 83.08L419.421 64.6C422.301 63.32 427.101 62.12 433.821 61C440.541 59.72 447.821 59.08 455.661 59.08ZM540.731 65.8C545.851 64.52 552.651 63.16 561.131 61.72C569.611 60.28 579.371 59.56 590.411 59.56C600.331 59.56 608.571 61 615.131 63.88C621.691 66.6 626.891 70.52 630.731 75.64C634.731 80.6 637.531 86.6 639.131 93.64C640.731 100.68 641.531 108.44 641.531 116.92V187H619.211V121.72C619.211 114.04 618.651 107.48 617.531 102.04C616.571 96.6 614.891 92.2 612.491 88.84C610.091 85.48 606.891 83.08 602.891 81.64C598.891 80.04 593.931 79.24 588.011 79.24C585.611 79.24 583.131 79.32 580.571 79.48C578.011 79.64 575.531 79.88 573.131 80.2C570.891 80.36 568.811 80.6 566.891 80.92C565.131 81.24 563.851 81.48 563.051 81.64V187H540.731V65.8Z" fill="white"/>
</svg>
