<svg width="32" height="10" viewBox="0 0 32 10" fill="none" xmlns="http://www.w3.org/2000/svg">
<path d="M2.54297 9.03516C2.51172 9.00391 2.49609 8.94531 2.49609 8.85938C2.49609 8.75 2.51172 8.69531 2.54297 8.69531C2.61328 8.69531 2.70703 8.6875 2.82422 8.67188C2.94141 8.64844 3.05078 8.61719 3.15234 8.57812C3.25391 8.53906 3.3125 8.5 3.32812 8.46094C3.35938 8.35156 3.37891 8.21094 3.38672 8.03906C3.40234 7.86719 3.41016 7.66016 3.41016 7.41797V3.17578C3.41016 2.49609 3.375 2.09375 3.30469 1.96875C3.25 1.85156 2.82812 1.79297 2.03906 1.79297C1.74219 1.79297 1.51172 1.82031 1.34766 1.875C1.18359 1.92188 1.05859 2.01953 0.972656 2.16797C0.886719 2.31641 0.804688 2.53906 0.726562 2.83594C0.710938 2.875 0.671875 2.89453 0.609375 2.89453C0.476562 2.89453 0.382812 2.86719 0.328125 2.8125L0.550781 1.13672C0.722656 1.17578 0.875 1.20703 1.00781 1.23047C1.14062 1.25391 1.25781 1.26562 1.35938 1.26562C1.92188 1.26562 2.41797 1.27344 2.84766 1.28906C3.27734 1.30469 3.63672 1.3125 3.92578 1.3125C4.52734 1.3125 5.04297 1.30469 5.47266 1.28906C5.91016 1.27344 6.25391 1.26562 6.50391 1.26562C6.60547 1.26562 6.72266 1.25391 6.85547 1.23047C6.98828 1.20703 7.14062 1.17578 7.3125 1.13672L7.53516 2.8125C7.48047 2.86719 7.38672 2.89453 7.25391 2.89453C7.19141 2.89453 7.15234 2.875 7.13672 2.83594C7.06641 2.53906 6.98438 2.31641 6.89062 2.16797C6.80469 2.01953 6.67969 1.92188 6.51562 1.875C6.35156 1.82031 6.12109 1.79297 5.82422 1.79297C5.00391 1.79297 4.57422 1.85156 4.53516 1.96875C4.46484 2.21094 4.42969 2.60156 4.42969 3.14062V7.37109C4.42969 7.82422 4.46484 8.1875 4.53516 8.46094C4.55078 8.49219 4.60938 8.52734 4.71094 8.56641C4.8125 8.60547 4.92188 8.63672 5.03906 8.66016C5.15625 8.68359 5.23828 8.69531 5.28516 8.69531C5.31641 8.69531 5.33203 8.75391 5.33203 8.87109C5.33203 8.91797 5.32422 8.97266 5.30859 9.03516C4.91797 9.01953 4.60938 9.00781 4.38281 9C4.15625 8.98438 4.01172 8.97656 3.94922 8.97656L2.54297 9.03516ZM8.09766 9.03516C8.06641 9.00391 8.05078 8.9375 8.05078 8.83594C8.05078 8.74219 8.06641 8.69531 8.09766 8.69531C8.16016 8.69531 8.24609 8.68359 8.35547 8.66016C8.46484 8.63672 8.56641 8.60547 8.66016 8.56641C8.75391 8.52734 8.80469 8.49219 8.8125 8.46094C8.86719 8.25 8.89453 7.98047 8.89453 7.65234V2.56641C8.89453 2.30078 8.87109 2.05078 8.82422 1.81641C8.79297 1.69141 8.59375 1.62891 8.22656 1.62891H8.12109C8.07422 1.62891 8.05078 1.58594 8.05078 1.5C8.05078 1.375 8.07422 1.3125 8.12109 1.3125C8.51953 1.27344 8.85547 1.21094 9.12891 1.125C9.40234 1.03125 9.58984 0.957031 9.69141 0.902344L9.75 0.867188H9.77344C9.80469 0.867188 9.83594 0.890625 9.86719 0.9375C9.89844 0.976563 9.91797 1.01562 9.92578 1.05469C9.83984 1.3125 9.79688 1.65234 9.79688 2.07422V4.64062C9.79688 4.67188 9.80469 4.6875 9.82031 4.6875C9.82812 4.6875 9.83984 4.67969 9.85547 4.66406C9.97266 4.53906 10.1211 4.41797 10.3008 4.30078C10.4883 4.17578 10.6875 4.07422 10.8984 3.99609C11.1094 3.91016 11.3086 3.86719 11.4961 3.86719C12.0195 3.86719 12.3945 4.05469 12.6211 4.42969C12.8477 4.80469 12.9609 5.38281 12.9609 6.16406V7.42969C12.9609 7.64844 12.9688 7.84375 12.9844 8.01562C13 8.1875 13.0234 8.33594 13.0547 8.46094C13.0703 8.49219 13.125 8.52734 13.2188 8.56641C13.3125 8.60547 13.4141 8.63672 13.5234 8.66016C13.6328 8.68359 13.7109 8.69531 13.7578 8.69531C13.7812 8.69531 13.7969 8.74219 13.8047 8.83594C13.8125 8.92969 13.8086 8.99609 13.793 9.03516L12.5391 8.97656L11.3086 9.03516C11.2773 9.00391 11.2617 8.9375 11.2617 8.83594C11.2617 8.74219 11.2773 8.69531 11.3086 8.69531C11.3711 8.69531 11.4531 8.68359 11.5547 8.66016C11.6562 8.63672 11.75 8.60547 11.8359 8.56641C11.9219 8.52734 11.9688 8.49219 11.9766 8.46094C12.0078 8.35156 12.0273 8.22656 12.0352 8.08594C12.0508 7.94531 12.0586 7.79688 12.0586 7.64062V6.39844C12.0586 5.91406 12.0156 5.54297 11.9297 5.28516C11.8438 5.01953 11.7109 4.83594 11.5312 4.73438C11.3516 4.63281 11.1211 4.58203 10.8398 4.58203C10.6836 4.58203 10.5234 4.62891 10.3594 4.72266C10.2031 4.80859 10.0703 4.91016 9.96094 5.02734C9.85156 5.14453 9.79688 5.25 9.79688 5.34375V7.41797C9.79688 7.64453 9.80469 7.84375 9.82031 8.01562C9.83594 8.1875 9.85938 8.33594 9.89062 8.46094C9.90625 8.49219 9.96094 8.52734 10.0547 8.56641C10.1484 8.60547 10.25 8.63672 10.3594 8.66016C10.4688 8.68359 10.5469 8.69531 10.5938 8.69531C10.6172 8.69531 10.6328 8.74219 10.6406 8.83594C10.6484 8.92969 10.6445 8.99609 10.6289 9.03516L9.375 8.97656L8.09766 9.03516ZM14.4727 9.03516C14.4414 9.00391 14.4258 8.9375 14.4258 8.83594C14.4258 8.74219 14.4414 8.69531 14.4727 8.69531C14.5352 8.69531 14.6211 8.68359 14.7305 8.66016C14.8398 8.63672 14.9414 8.60547 15.0352 8.56641C15.1289 8.52734 15.1797 8.49219 15.1875 8.46094C15.2188 8.35156 15.2383 8.22656 15.2461 8.08594C15.2617 7.94531 15.2695 7.79688 15.2695 7.64062V5.42578C15.2695 5.12891 15.2148 4.91797 15.1055 4.79297C15.0273 4.69141 14.9336 4.62891 14.8242 4.60547C14.7148 4.57422 14.6211 4.55859 14.543 4.55859C14.4648 4.55078 14.4258 4.53906 14.4258 4.52344C14.4258 4.33594 14.4492 4.23828 14.4961 4.23047C14.9102 4.16797 15.2266 4.11719 15.4453 4.07812C15.6641 4.03125 15.8594 3.98828 16.0312 3.94922L16.1719 3.91406C16.2031 3.90625 16.2227 3.9375 16.2305 4.00781C16.2383 4.07812 16.2383 4.12891 16.2305 4.16016C16.2148 4.31641 16.1992 4.46484 16.1836 4.60547C16.1758 4.74609 16.1719 4.87891 16.1719 5.00391V7.41797C16.1719 7.64453 16.1797 7.84375 16.1953 8.01562C16.2109 8.1875 16.2344 8.33594 16.2656 8.46094C16.2812 8.49219 16.3359 8.52734 16.4297 8.56641C16.5234 8.60547 16.625 8.63672 16.7344 8.66016C16.8438 8.68359 16.9219 8.69531 16.9688 8.69531C16.9922 8.69531 17.0078 8.74219 17.0156 8.83594C17.0234 8.92969 17.0195 8.99609 17.0039 9.03516L15.75 8.97656L14.4727 9.03516ZM15.6328 2.63672C15.4766 2.63672 15.3398 2.57812 15.2227 2.46094C15.1055 2.34375 15.0469 2.20703 15.0469 2.05078C15.0469 1.88672 15.1055 1.75 15.2227 1.64062C15.3398 1.52344 15.4766 1.46484 15.6328 1.46484C15.7969 1.46484 15.9336 1.52344 16.043 1.64062C16.1602 1.75 16.2188 1.88672 16.2188 2.05078C16.2188 2.20703 16.1602 2.34375 16.043 2.46094C15.9336 2.57812 15.7969 2.63672 15.6328 2.63672ZM17.5781 9.03516C17.5469 9.00391 17.5312 8.9375 17.5312 8.83594C17.5312 8.74219 17.5469 8.69531 17.5781 8.69531C17.6406 8.69531 17.7266 8.68359 17.8359 8.66016C17.9453 8.63672 18.0469 8.60547 18.1406 8.56641C18.2344 8.52734 18.2852 8.49219 18.293 8.46094C18.3242 8.35156 18.3438 8.22656 18.3516 8.08594C18.3672 7.94531 18.375 7.79688 18.375 7.64062V2.56641C18.375 2.30078 18.3516 2.05078 18.3047 1.81641C18.2734 1.69141 18.0742 1.62891 17.707 1.62891H17.6016C17.5547 1.62891 17.5312 1.58594 17.5312 1.5C17.5312 1.375 17.5547 1.3125 17.6016 1.3125C18.0703 1.25781 18.418 1.19531 18.6445 1.125C18.8711 1.05469 19.0273 0.992187 19.1133 0.9375L19.2305 0.867188H19.2539C19.2852 0.867188 19.3164 0.890625 19.3477 0.9375C19.3789 0.976563 19.3984 1.01562 19.4062 1.05469C19.3203 1.3125 19.2773 1.65234 19.2773 2.07422V7.41797C19.2773 7.64453 19.2852 7.84375 19.3008 8.01562C19.3164 8.1875 19.3398 8.33594 19.3711 8.46094C19.3867 8.49219 19.4414 8.52734 19.5352 8.56641C19.6289 8.60547 19.7305 8.63672 19.8398 8.66016C19.9492 8.68359 20.0273 8.69531 20.0742 8.69531C20.0977 8.69531 20.1133 8.74219 20.1211 8.83594C20.1289 8.92969 20.125 8.99609 20.1094 9.03516L18.8555 8.97656L17.5781 9.03516ZM21.9961 9.08203C21.6367 9.08203 21.3398 8.98828 21.1055 8.80078C20.8711 8.60547 20.7539 8.31641 20.7539 7.93359C20.7539 7.46484 21.0586 7.07422 21.668 6.76172C21.9336 6.62891 22.1953 6.52344 22.4531 6.44531C22.7188 6.36719 22.9844 6.27734 23.25 6.17578C23.3203 6.15234 23.3555 6.09375 23.3555 6V5.12109C23.3555 4.87109 23.2773 4.67969 23.1211 4.54688C22.9648 4.40625 22.7773 4.33594 22.5586 4.33594C22.3242 4.33594 22.1289 4.41797 21.9727 4.58203C21.8164 4.73828 21.7383 4.94531 21.7383 5.20312C21.7383 5.47656 21.5781 5.61328 21.2578 5.61328C21.0312 5.61328 20.8789 5.53906 20.8008 5.39062C20.8008 5.22656 20.8672 5.05859 21 4.88672C21.1406 4.70703 21.3203 4.54297 21.5391 4.39453C21.7578 4.24609 21.9961 4.125 22.2539 4.03125C22.5195 3.9375 22.7812 3.89062 23.0391 3.89062C23.4688 3.89062 23.7773 3.99609 23.9648 4.20703C24.1523 4.41016 24.2461 4.74219 24.2461 5.20312V7.91016C24.2461 8.07422 24.2891 8.21094 24.375 8.32031C24.4609 8.42969 24.5781 8.48438 24.7266 8.48438C24.8281 8.48438 24.9648 8.42969 25.1367 8.32031C25.168 8.32031 25.1836 8.35156 25.1836 8.41406C25.1836 8.51562 25.1641 8.59766 25.125 8.66016C24.8047 8.93359 24.5312 9.07031 24.3047 9.07031C24.125 9.07031 23.9531 8.99609 23.7891 8.84766C23.625 8.69922 23.5117 8.54297 23.4492 8.37891C23.4102 8.41016 23.3594 8.45312 23.2969 8.50781C23.2422 8.55469 23.1953 8.59375 23.1562 8.625C22.9922 8.75 22.8125 8.85938 22.6172 8.95312C22.4297 9.03906 22.2227 9.08203 21.9961 9.08203ZM22.4414 8.41406C22.6602 8.41406 22.8672 8.35156 23.0625 8.22656C23.2578 8.10156 23.3555 7.96875 23.3555 7.82812V6.62109C23.1523 6.69922 22.957 6.76953 22.7695 6.83203C22.5898 6.89453 22.4453 6.94531 22.3359 6.98438C22.1953 7.03906 22.0586 7.13672 21.9258 7.27734C21.8008 7.41797 21.7383 7.57812 21.7383 7.75781C21.7383 7.99219 21.8086 8.16016 21.9492 8.26172C22.0977 8.36328 22.2617 8.41406 22.4414 8.41406ZM25.6406 9.03516C25.6094 9.00391 25.5938 8.9375 25.5938 8.83594C25.5938 8.74219 25.6094 8.69531 25.6406 8.69531C25.7031 8.69531 25.7891 8.68359 25.8984 8.66016C26.0078 8.63672 26.1094 8.60547 26.2031 8.56641C26.2969 8.52734 26.3477 8.49219 26.3555 8.46094C26.3867 8.35156 26.4062 8.22656 26.4141 8.08594C26.4297 7.94531 26.4375 7.79688 26.4375 7.64062V5.42578C26.4375 5.12891 26.3828 4.91797 26.2734 4.79297C26.1953 4.69922 26.1016 4.63672 25.9922 4.60547C25.8906 4.57422 25.7969 4.55859 25.7109 4.55859C25.6328 4.55078 25.5938 4.53906 25.5938 4.52344C25.5938 4.33594 25.6172 4.23828 25.6641 4.23047C26.0781 4.16797 26.4141 4.11328 26.6719 4.06641C26.9297 4.01172 27.0898 3.97656 27.1523 3.96094L27.3398 3.91406C27.3711 3.90625 27.3906 3.9375 27.3984 4.00781C27.4062 4.07812 27.4062 4.12891 27.3984 4.16016C27.3828 4.26953 27.3711 4.36328 27.3633 4.44141C27.3555 4.51953 27.3516 4.58203 27.3516 4.62891C27.3516 4.66016 27.3594 4.67578 27.375 4.67578C27.3828 4.67578 27.3945 4.66797 27.4102 4.65234C27.5898 4.46484 27.832 4.28906 28.1367 4.125C28.4492 3.95312 28.7461 3.86719 29.0273 3.86719C29.5742 3.86719 29.957 4.0625 30.1758 4.45312C30.3945 4.84375 30.5039 5.47656 30.5039 6.35156V7.41797C30.5039 7.64453 30.5117 7.84375 30.5273 8.01562C30.543 8.1875 30.5664 8.33594 30.5977 8.46094C30.6133 8.49219 30.668 8.52734 30.7617 8.56641C30.8555 8.60547 30.957 8.63672 31.0664 8.66016C31.1758 8.68359 31.2539 8.69531 31.3008 8.69531C31.3242 8.69531 31.3398 8.74219 31.3477 8.83594C31.3555 8.92969 31.3516 8.99609 31.3359 9.03516L30.082 8.97656L28.8516 9.03516C28.8203 9.00391 28.8047 8.9375 28.8047 8.83594C28.8047 8.74219 28.8203 8.69531 28.8516 8.69531C28.9141 8.69531 28.9961 8.68359 29.0977 8.66016C29.1992 8.63672 29.293 8.60547 29.3789 8.56641C29.4648 8.52734 29.5117 8.49219 29.5195 8.46094C29.5508 8.35156 29.5703 8.22656 29.5781 8.08594C29.5938 7.94531 29.6016 7.79688 29.6016 7.64062V6.46875C29.6016 5.74219 29.5078 5.24609 29.3203 4.98047C29.1328 4.71484 28.8281 4.58203 28.4062 4.58203C28.2422 4.58203 28.0781 4.62891 27.9141 4.72266C27.75 4.80859 27.6133 4.91016 27.5039 5.02734C27.3945 5.14453 27.3398 5.25391 27.3398 5.35547V7.41797C27.3398 7.64453 27.3477 7.84375 27.3633 8.01562C27.3789 8.1875 27.4023 8.33594 27.4336 8.46094C27.4492 8.49219 27.5039 8.52734 27.5977 8.56641C27.6914 8.60547 27.793 8.63672 27.9023 8.66016C28.0117 8.68359 28.0898 8.69531 28.1367 8.69531C28.1602 8.69531 28.1758 8.74219 28.1836 8.83594C28.1914 8.92969 28.1875 8.99609 28.1719 9.03516L26.918 8.97656L25.6406 9.03516Z" fill="white"/>
</svg>
