<svg width="48" height="12" viewBox="0 0 48 12" fill="none" xmlns="http://www.w3.org/2000/svg">
<path d="M1.052 3.308C0.724 3.308 0.492 3.292 0.356 3.26C0.22 3.22 0.136 3.168 0.104 3.104C0.08 3.04 0.068 2.976 0.068 2.912C0.068 2.824 0.112 2.744 0.2 2.672C0.296 2.592 0.488 2.528 0.776 2.48C1.144 2.4 1.576 2.32 2.072 2.24C2.576 2.152 3.112 2.072 3.68 2C4.248 1.92 4.816 1.848 5.384 1.784C5.96 1.72 6.508 1.672 7.028 1.64C7.556 1.6 8.024 1.58 8.432 1.58C8.976 1.58 9.344 1.628 9.536 1.724C9.736 1.82 9.836 1.924 9.836 2.036C9.836 2.14 9.78 2.236 9.668 2.324C9.564 2.412 9.384 2.456 9.128 2.456C9.024 2.456 8.784 2.48 8.408 2.528C8.032 2.568 7.572 2.624 7.028 2.696C6.492 2.76 5.924 2.832 5.324 2.912C5.284 3.184 5.224 3.544 5.144 3.992C5.064 4.432 4.972 4.916 4.868 5.444C4.772 5.972 4.672 6.504 4.568 7.04C4.472 7.568 4.38 8.06 4.292 8.516C4.212 8.972 4.144 9.348 4.088 9.644C4.032 9.94 4 10.116 3.992 10.172C3.96 10.42 3.888 10.608 3.776 10.736C3.672 10.856 3.556 10.916 3.428 10.916C3.276 10.916 3.148 10.852 3.044 10.724C2.948 10.588 2.9 10.352 2.9 10.016C2.9 9.904 2.924 9.688 2.972 9.368C3.02 9.04 3.084 8.652 3.164 8.204C3.244 7.756 3.332 7.28 3.428 6.776C3.524 6.272 3.62 5.78 3.716 5.3C3.812 4.812 3.9 4.372 3.98 3.98C4.06 3.58 4.12 3.268 4.16 3.044C3.528 3.116 2.932 3.18 2.372 3.236C1.82 3.284 1.38 3.308 1.052 3.308ZM9.51528 11.54C9.33928 11.54 9.20328 11.488 9.10728 11.384C9.01128 11.288 8.96328 11.044 8.96328 10.652C8.96328 10.292 9.02728 9.824 9.15528 9.248C9.28328 8.664 9.45528 8.016 9.67128 7.304C9.88728 6.592 10.1313 5.856 10.4033 5.096C10.6753 4.328 10.9593 3.576 11.2553 2.84C11.5593 2.096 11.8513 1.416 12.1313 0.8C12.2353 0.576 12.3433 0.42 12.4553 0.331999C12.5673 0.243999 12.6993 0.2 12.8513 0.2C12.9553 0.2 13.0433 0.232 13.1153 0.296C13.1953 0.352 13.2353 0.447999 13.2353 0.584C13.2353 0.631999 13.1833 0.787999 13.0793 1.052C12.9833 1.316 12.8473 1.664 12.6713 2.096C12.5033 2.528 12.3153 3.012 12.1073 3.548C11.8993 4.084 11.6873 4.648 11.4713 5.24C11.2553 5.832 11.0513 6.428 10.8593 7.028C10.6673 7.62 10.5033 8.188 10.3673 8.732C10.2313 9.276 10.1393 9.764 10.0913 10.196C10.2833 9.964 10.5033 9.668 10.7513 9.308C10.9993 8.948 11.2633 8.56 11.5433 8.144C11.8233 7.728 12.1073 7.316 12.3953 6.908C12.6833 6.5 12.9673 6.128 13.2473 5.792C13.5273 5.456 13.7873 5.188 14.0273 4.988C14.2753 4.78 14.4913 4.676 14.6753 4.676C14.9793 4.676 15.2233 4.772 15.4073 4.964C15.5993 5.148 15.6953 5.452 15.6953 5.876C15.6953 6.116 15.6473 6.404 15.5513 6.74C15.4633 7.076 15.3593 7.428 15.2393 7.796C15.1193 8.164 15.0113 8.516 14.9153 8.852C14.8273 9.188 14.7833 9.476 14.7833 9.716C14.7833 10.044 14.9073 10.208 15.1553 10.208C15.5393 10.208 15.9233 10.124 16.3073 9.956C16.6993 9.788 17.0713 9.58 17.4233 9.332C17.7753 9.076 18.0993 8.82 18.3953 8.564C18.6913 8.3 18.9433 8.076 19.1513 7.892C19.3753 7.692 19.5633 7.592 19.7153 7.592C19.9073 7.592 20.0033 7.692 20.0033 7.892C20.0033 7.948 19.9913 8.012 19.9673 8.084C19.9433 8.156 19.8793 8.248 19.7753 8.36C19.6473 8.504 19.4633 8.692 19.2233 8.924C18.9913 9.156 18.7193 9.404 18.4073 9.668C18.1033 9.932 17.7713 10.18 17.4113 10.412C17.0593 10.644 16.6953 10.836 16.3193 10.988C15.9513 11.132 15.5913 11.204 15.2393 11.204C14.7593 11.204 14.3873 11.068 14.1233 10.796C13.8673 10.516 13.7393 10.132 13.7393 9.644C13.7393 9.34 13.7873 8.972 13.8833 8.54C13.9793 8.108 14.0993 7.652 14.2433 7.172C14.3953 6.684 14.5473 6.208 14.6993 5.744C14.4433 5.92 14.1633 6.184 13.8593 6.536C13.5633 6.88 13.2513 7.272 12.9233 7.712C12.5953 8.144 12.2673 8.584 11.9393 9.032C11.6193 9.48 11.3073 9.896 11.0033 10.28C10.7073 10.656 10.4313 10.96 10.1753 11.192C9.91928 11.424 9.69928 11.54 9.51528 11.54ZM19.6411 11.06C19.4891 11.06 19.3531 11.004 19.2331 10.892C19.1131 10.772 19.0531 10.588 19.0531 10.34C19.0531 10.164 19.0771 9.92 19.1251 9.608C19.1731 9.288 19.2371 8.94 19.3171 8.564C19.3971 8.188 19.4811 7.816 19.5691 7.448C19.6651 7.072 19.7611 6.736 19.8571 6.44C19.9531 6.144 20.0371 5.924 20.1091 5.78C20.1731 5.668 20.2331 5.596 20.2891 5.564C20.3531 5.532 20.4131 5.516 20.4691 5.516C20.5811 5.516 20.6771 5.552 20.7571 5.624C20.8451 5.696 20.8891 5.836 20.8891 6.044C20.8891 6.164 20.8651 6.364 20.8171 6.644C20.7771 6.916 20.7211 7.236 20.6491 7.604C20.5851 7.964 20.5131 8.336 20.4331 8.72C20.3611 9.096 20.2891 9.456 20.2171 9.8C20.1451 10.144 20.0891 10.432 20.0491 10.664C20.0171 10.792 19.9611 10.892 19.8811 10.964C19.8091 11.028 19.7291 11.06 19.6411 11.06ZM20.8171 4.424C20.6331 4.424 20.4571 4.368 20.2891 4.256C20.1291 4.144 20.0491 3.964 20.0491 3.716C20.0491 3.508 20.0971 3.34 20.1931 3.212C20.2971 3.084 20.4171 2.992 20.5531 2.936C20.6971 2.872 20.8211 2.84 20.9251 2.84C21.0291 2.84 21.1451 2.864 21.2731 2.912C21.4091 2.952 21.5251 3.032 21.6211 3.152C21.7171 3.264 21.7651 3.432 21.7651 3.656C21.7651 3.808 21.7131 3.944 21.6091 4.064C21.5051 4.176 21.3771 4.264 21.2251 4.328C21.0811 4.392 20.9451 4.424 20.8171 4.424ZM24.8184 11.48C24.2024 11.48 23.7184 11.28 23.3664 10.88C23.0224 10.472 22.8504 9.904 22.8504 9.176C22.8504 8.728 22.9104 8.204 23.0304 7.604C23.1584 6.996 23.3184 6.356 23.5104 5.684C23.7104 5.004 23.9264 4.332 24.1584 3.668C24.3904 3.004 24.6144 2.388 24.8304 1.82C25.0544 1.244 25.2504 0.764 25.4184 0.379999C25.5144 0.163999 25.6504 0.0559993 25.8264 0.0559993C26.0664 0.0559993 26.1864 0.203999 26.1864 0.499999C26.1864 0.595999 26.1424 0.792 26.0544 1.088C25.9664 1.384 25.8504 1.752 25.7064 2.192C25.5624 2.624 25.4064 3.104 25.2384 3.632C25.0704 4.16 24.8984 4.704 24.7224 5.264C24.5544 5.816 24.3984 6.364 24.2544 6.908C24.1104 7.444 23.9944 7.948 23.9064 8.42C23.8184 8.892 23.7744 9.296 23.7744 9.632C23.7744 9.848 23.8304 10.02 23.9424 10.148C24.0624 10.268 24.2224 10.328 24.4224 10.328C24.7904 10.328 25.1584 10.256 25.5264 10.112C25.9024 9.96 26.2624 9.776 26.6064 9.56C26.9504 9.336 27.2624 9.116 27.5424 8.9C27.8304 8.676 28.0744 8.492 28.2744 8.348C28.4744 8.196 28.6144 8.12 28.6944 8.12C28.8704 8.12 28.9584 8.216 28.9584 8.408C28.9584 8.472 28.8944 8.592 28.7664 8.768C28.6384 8.936 28.4664 9.136 28.2504 9.368C28.0344 9.6 27.7824 9.84 27.4944 10.088C27.2144 10.328 26.9184 10.556 26.6064 10.772C26.3024 10.98 25.9944 11.148 25.6824 11.276C25.3784 11.412 25.0904 11.48 24.8184 11.48ZM28.9345 10.772C28.6305 10.772 28.3785 10.632 28.1785 10.352C27.9865 10.064 27.8905 9.692 27.8905 9.236C27.8905 8.836 27.9905 8.452 28.1905 8.084C28.3905 7.708 28.6545 7.348 28.9825 7.004C29.3185 6.66 29.6905 6.344 30.0985 6.056C30.5065 5.76 30.9185 5.492 31.3345 5.252C31.7585 5.012 32.1585 4.808 32.5345 4.64C32.9185 4.472 33.2465 4.344 33.5185 4.256C33.7905 4.16 33.9785 4.112 34.0825 4.112C34.2585 4.112 34.3465 4.208 34.3465 4.4C34.3465 4.568 34.2785 4.716 34.1425 4.844C34.0145 4.972 33.8585 5.08 33.6745 5.168C33.3385 5.336 32.9545 5.536 32.5225 5.768C32.0985 5.992 31.6665 6.244 31.2265 6.524C30.7945 6.796 30.3905 7.088 30.0145 7.4C29.6465 7.712 29.3505 8.04 29.1265 8.384C28.9025 8.72 28.7905 9.064 28.7905 9.416C28.7905 9.52 28.8105 9.6 28.8505 9.656C28.8985 9.712 28.9785 9.74 29.0905 9.74C29.2345 9.74 29.4185 9.672 29.6425 9.536C29.8745 9.392 30.1265 9.204 30.3985 8.972C30.6785 8.732 30.9545 8.468 31.2265 8.18C31.5065 7.892 31.7665 7.6 32.0065 7.304C32.2465 7 32.4425 6.716 32.5945 6.452C32.6825 6.308 32.7825 6.188 32.8945 6.092C33.0065 5.988 33.1265 5.936 33.2545 5.936C33.4305 5.936 33.5185 6.04 33.5185 6.248C33.5185 6.312 33.4945 6.476 33.4465 6.74C33.4065 7.004 33.3625 7.324 33.3145 7.7C33.2665 8.068 33.2425 8.456 33.2425 8.864C33.2425 9.736 33.4505 10.172 33.8665 10.172C34.0985 10.172 34.3385 10.084 34.5865 9.908C34.8425 9.732 35.0905 9.508 35.3305 9.236C35.5785 8.956 35.8065 8.66 36.0145 8.348C36.2225 8.036 36.3985 7.74 36.5425 7.46C36.6865 7.18 36.7865 6.956 36.8425 6.788C36.9705 5.892 37.1505 5.248 37.3825 4.856C37.6225 4.464 37.8665 4.268 38.1145 4.268C38.2745 4.268 38.4025 4.312 38.4985 4.4C38.5945 4.48 38.6425 4.66 38.6425 4.94C38.6425 5.132 38.5665 5.42 38.4145 5.804C38.2625 6.188 38.0585 6.608 37.8025 7.064C37.7305 7.472 37.6905 7.892 37.6825 8.324C37.6745 8.756 37.7185 9.152 37.8145 9.512C38.0225 9.408 38.2305 9.22 38.4385 8.948C38.6465 8.668 38.8585 8.344 39.0745 7.976C39.2905 7.608 39.5025 7.228 39.7105 6.836C39.9265 6.444 40.1385 6.084 40.3465 5.756C40.5625 5.42 40.7705 5.148 40.9705 4.94C41.1785 4.732 41.3825 4.628 41.5825 4.628C41.8385 4.628 42.0505 4.708 42.2185 4.868C42.3865 5.02 42.5145 5.292 42.6025 5.684C42.6905 6.068 42.7345 6.612 42.7345 7.316C42.7345 7.692 42.7705 8.044 42.8425 8.372C42.9225 8.7 43.0465 8.964 43.2145 9.164C43.3905 9.356 43.6145 9.452 43.8865 9.452C44.2945 9.452 44.6585 9.38 44.9785 9.236C45.2985 9.084 45.5745 8.916 45.8065 8.732C46.0465 8.54 46.2465 8.372 46.4065 8.228C46.5665 8.076 46.6905 8 46.7785 8C46.9625 8 47.0545 8.096 47.0545 8.288C47.0545 8.368 46.9945 8.496 46.8745 8.672C46.7625 8.84 46.6025 9.032 46.3945 9.248C46.1945 9.456 45.9625 9.66 45.6985 9.86C45.4425 10.052 45.1665 10.212 44.8705 10.34C44.5825 10.468 44.2905 10.532 43.9945 10.532C43.4425 10.532 42.9905 10.424 42.6385 10.208C42.2945 9.992 42.0385 9.636 41.8705 9.14C41.7105 8.644 41.6305 7.98 41.6305 7.148C41.6305 6.692 41.6145 6.36 41.5825 6.152C41.5505 5.936 41.4705 5.792 41.3425 5.72C41.2465 5.888 41.1185 6.128 40.9585 6.44C40.8065 6.744 40.6305 7.084 40.4305 7.46C40.2385 7.836 40.0305 8.216 39.8065 8.6C39.5825 8.976 39.3545 9.324 39.1225 9.644C38.8905 9.956 38.6585 10.212 38.4265 10.412C38.1945 10.604 37.9745 10.7 37.7665 10.7C37.6305 10.7 37.4905 10.628 37.3465 10.484C37.2025 10.332 37.0825 10.136 36.9865 9.896C36.8905 9.648 36.8425 9.384 36.8425 9.104C36.8425 8.92 36.8465 8.748 36.8545 8.588C36.5265 9.052 36.1825 9.484 35.8225 9.884C35.4625 10.276 35.1025 10.592 34.7425 10.832C34.3825 11.072 34.0465 11.192 33.7345 11.192C33.4865 11.192 33.2545 11.104 33.0385 10.928C32.8225 10.744 32.6465 10.436 32.5105 10.004C32.3825 9.564 32.3105 8.968 32.2945 8.216C31.9425 8.712 31.5705 9.152 31.1785 9.536C30.7865 9.92 30.3985 10.224 30.0145 10.448C29.6305 10.664 29.2705 10.772 28.9345 10.772Z" fill="white"/>
</svg>
